HIERARCHY
ROOT hip
{
  OFFSET 0.00112043 5.09927 -9.65472
  CHANNELS 6 Xposition Yposition Zposition Zrotation Xrotation Yrotation
  JOINT abdomen
  {
    OFFSET 0 -1.186 -1.5018
    CHANNELS 3 Zrotation Xrotation Yrotation
    JOINT abdomen2
    {
      OFFSET 0 9.964 0.2134
      CHANNELS 3 Zrotation Xrotation Yrotation
      JOINT chest
      {
        OFFSET 0 13.134 -3.2573
        CHANNELS 3 Zrotation Xrotation Yrotation
        JOINT neck
        {
          OFFSET 0 20.686 -1.6905
          CHANNELS 3 Zrotation Xrotation Yrotation
          JOINT head
          {
            OFFSET 0 7.238 -0.1237
            CHANNELS 3 Zrotation Xrotation Yrotation
            End Site
            {
              OFFSET 0 0 0
            }
          }
        }
        JOINT lCollar
        {
          OFFSET 1.7069 20.075 5.0056
          CHANNELS 3 Zrotation Xrotation Yrotation
          JOINT lShldr
          {
            OFFSET 13.6458 -0.047 -4.849
            CHANNELS 3 Zrotation Xrotation Yrotation
            JOINT lForeArm
            {
              OFFSET 28.3255 -0.9759 2.2888
              CHANNELS 3 Zrotation Xrotation Yrotation
              JOINT lHand
              {
                OFFSET 22.1583 -0.53 10.8316
                CHANNELS 3 Zrotation Xrotation Yrotation
                JOINT lThumb1
                {
                  OFFSET 0.786 0.112 2.5817
                  CHANNELS 3 Zrotation Xrotation Yrotation
                  JOINT lThumb2
                  {
                    OFFSET 0.3601 -0.878 4.2331
                    CHANNELS 3 Zrotation Xrotation Yrotation
                    JOINT lThumb2_End
                    {
                      OFFSET 1.8127 -1.216 2.2227
                      CHANNELS 3 Zrotation Xrotation Yrotation
                      End Site
                      {
                        OFFSET 0.0181 -0.0122 0.0222
                      }
                    }
                  }
                }
                JOINT lCarpal1
                {
                  OFFSET 0.9571 1.114 1.7695
                  CHANNELS 3 Zrotation Xrotation Yrotation
                  JOINT lIndex1
                  {
                    OFFSET 4.1246 0.487 4.1451
                    CHANNELS 3 Zrotation Xrotation Yrotation
                    JOINT lIndex2
                    {
                      OFFSET 3.4052 -1.454 2.7682
                      CHANNELS 3 Zrotation Xrotation Yrotation
                      JOINT lIndex2_End
                      {
                        OFFSET 1.4531 -1.795 1.2713
                        CHANNELS 3 Zrotation Xrotation Yrotation
                        End Site
                        {
                          OFFSET 0.0145 -0.0179 0.0127
                        }
                      }
                    }
                  }
                  JOINT lMid1
                  {
                    OFFSET 5.6954 0.21 2.1184
                    CHANNELS 3 Zrotation Xrotation Yrotation
                    JOINT lMid2
                    {
                      OFFSET 3.9766 -1.54 2.3863
                      CHANNELS 3 Zrotation Xrotation Yrotation
                      JOINT lMid2_End
                      {
                        OFFSET 1.4042 -1.926 1.125
                        CHANNELS 3 Zrotation Xrotation Yrotation
                        End Site
                        {
                          OFFSET 0.014 -0.0193 0.0113
                        }
                      }
                    }
                  }
                }
                JOINT lCarpal2
                {
                  OFFSET 2.0956 0.66 -0.3894
                  CHANNELS 3 Zrotation Xrotation Yrotation
                  JOINT lRing1
                  {
                    OFFSET 5.0395 -0.09 2.4971
                    CHANNELS 3 Zrotation Xrotation Yrotation
                    JOINT lRing2
                    {
                      OFFSET 3.7921 -1.552 1.4806
                      CHANNELS 3 Zrotation Xrotation Yrotation
                      JOINT lRing2_End
                      {
                        OFFSET 1.4655 -1.808 0.9609
                        CHANNELS 3 Zrotation Xrotation Yrotation
                        End Site
                        {
                          OFFSET 0.0147 -0.0181 0.0096
                        }
                      }
                    }
                  }
                  JOINT lPinky1
                  {
                    OFFSET 4.9141 -1.269 0.3591
                    CHANNELS 3 Zrotation Xrotation Yrotation
                    JOINT lPinky2
                    {
                      OFFSET 3.1477 -1.685 0.8462
                      CHANNELS 3 Zrotation Xrotation Yrotation
                      JOINT lPinky2_End
                      {
                        OFFSET 0.8055 -1.585 0.7955
                        CHANNELS 3 Zrotation Xrotation Yrotation
                        End Site
                        {
                          OFFSET 0.0081 -0.0158 0.008
                        }
                      }
                    }
                  }
                }
              }
            }
          }
        }
        JOINT rCollar
        {
          OFFSET -1.7069 20.075 5.0056
          CHANNELS 3 Zrotation Xrotation Yrotation
          JOINT rShldr
          {
            OFFSET -13.6458 -0.047 -4.849
            CHANNELS 3 Zrotation Xrotation Yrotation
            JOINT rForeArm
            {
              OFFSET -28.3255 -0.9759 2.2888
              CHANNELS 3 Zrotation Xrotation Yrotation
              JOINT rHand
              {
                OFFSET -22.1583 -0.53 10.8316
                CHANNELS 3 Zrotation Xrotation Yrotation
                JOINT rThumb1
                {
                  OFFSET -0.786 0.112 2.5817
                  CHANNELS 3 Zrotation Xrotation Yrotation
                  JOINT rThumb2
                  {
                    OFFSET -0.3601 -0.878 4.2331
                    CHANNELS 3 Zrotation Xrotation Yrotation
                    JOINT rThumb2_End
                    {
                      OFFSET -1.8127 -1.216 2.2227
                      CHANNELS 3 Zrotation Xrotation Yrotation
                      End Site
                      {
                        OFFSET -0.0181 -0.0122 0.0222
                      }
                    }
                  }
                }
                JOINT rCarpal1
                {
                  OFFSET -0.9571 1.114 1.7695
                  CHANNELS 3 Zrotation Xrotation Yrotation
                  JOINT rIndex1
                  {
                    OFFSET -4.1246 0.487 4.1451
                    CHANNELS 3 Zrotation Xrotation Yrotation
                    JOINT rIndex2
                    {
                      OFFSET -3.4052 -1.454 2.7682
                      CHANNELS 3 Zrotation Xrotation Yrotation
                      JOINT rIndex2_End
                      {
                        OFFSET -1.4531 -1.795 1.2713
                        CHANNELS 3 Zrotation Xrotation Yrotation
                        End Site
                        {
                          OFFSET -0.0145 -0.018 0.0127
                        }
                      }
                    }
                  }
                  JOINT rMid1
                  {
                    OFFSET -5.6954 0.21 2.1184
                    CHANNELS 3 Zrotation Xrotation Yrotation
                    JOINT rMid2
                    {
                      OFFSET -3.9766 -1.54 2.3863
                      CHANNELS 3 Zrotation Xrotation Yrotation
                      JOINT rMid2_End
                      {
                        OFFSET -1.4042 -1.926 1.125
                        CHANNELS 3 Zrotation Xrotation Yrotation
                        End Site
                        {
                          OFFSET -0.014 -0.0193 0.0113
                        }
                      }
                    }
                  }
                }
                JOINT rCarpal2
                {
                  OFFSET -2.0956 0.66 -0.3894
                  CHANNELS 3 Zrotation Xrotation Yrotation
                  JOINT rRing1
                  {
                    OFFSET -5.0395 -0.09 2.4971
                    CHANNELS 3 Zrotation Xrotation Yrotation
                    JOINT rRing2
                    {
                      OFFSET -3.7921 -1.552 1.4806
                      CHANNELS 3 Zrotation Xrotation Yrotation
                      JOINT rRing2_End
                      {
                        OFFSET -1.4655 -1.808 0.9609
                        CHANNELS 3 Zrotation Xrotation Yrotation
                        End Site
                        {
                          OFFSET -0.0147 -0.0181 0.0096
                        }
                      }
                    }
                  }
                  JOINT rPinky1
                  {
                    OFFSET -4.9141 -1.269 0.3592
                    CHANNELS 3 Zrotation Xrotation Yrotation
                    JOINT rPinky2
                    {
                      OFFSET -3.1477 -1.685 0.8462
                      CHANNELS 3 Zrotation Xrotation Yrotation
                      JOINT rPinky2_End
                      {
                        OFFSET -0.8055 -1.585 0.7955
                        CHANNELS 3 Zrotation Xrotation Yrotation
                        End Site
                        {
                          OFFSET -0.0081 -0.0158 0.008
                        }
                      }
                    }
                  }
                }
              }
            }
          }
        }
      }
    }
  }
  JOINT lThigh
  {
    OFFSET 8.367 -8.2066 0.5982
    CHANNELS 3 Zrotation Xrotation Yrotation
    JOINT lShin
    {
      OFFSET 2.1923 -43.463 -0.4932
      CHANNELS 3 Zrotation Xrotation Yrotation
      JOINT lFoot
      {
        OFFSET 0.7333 -45.8593 -2.6451
        CHANNELS 3 Zrotation Xrotation Yrotation
        End Site
        {
          OFFSET 2.6618 -4.2699 12.3931
        }
      }
    }
  }
  JOINT rThigh
  {
    OFFSET -8.367 -8.2066 0.5982
    CHANNELS 3 Zrotation Xrotation Yrotation
    JOINT rShin
    {
      OFFSET -2.1923 -43.463 -0.4931
      CHANNELS 3 Zrotation Xrotation Yrotation
      JOINT rFoot
      {
        OFFSET -0.7333 -45.8593 -2.6451
        CHANNELS 3 Zrotation Xrotation Yrotation
        End Site
        {
          OFFSET -2.6618 -4.2699 12.3931
        }
      }
    }
  }
}
MOTION
Frames:	4
Frame Time:	0.0333333
0 91.7903 2.51682 0 0 -0 0 0 -0 0 0 -0 0 0 -0 0 0 -0 0 0 -0 0 0 -0 1.66051 0.0835086 5.75766 -0.0175111 0.895433 15.7816 7.95139e-016 -1.98785e-016 -0 5.46658e-016 -3.97569e-016 -0 5.96354e-016 0 -0 3.97569e-016 1.98785e-016 9.54166e-015 1.49089e-016 -3.97569e-016 -0 6.4605e-016 0 3.18055e-015 5.96354e-016 0 3.18055e-015 8.94531e-016 -1.98785e-016 6.36111e-015 6.4605e-016 0 3.18055e-015 5.96354e-016 0 3.18055e-015 8.94531e-016 -1.98785e-016 6.36111e-015 1.49089e-016 -3.97569e-016 -0 6.4605e-016 0 3.18055e-015 5.96354e-016 0 3.18055e-015 8.94531e-016 -1.98785e-016 6.36111e-015 6.4605e-016 0 3.18055e-015 5.96354e-016 0 3.18055e-015 8.94531e-016 -1.98785e-016 6.36111e-015 0 0 -0 -1.4496 0.0636048 -5.0245 -1.74811 1.20616 -16.8394 -1.19271e-015 1.98785e-016 -3.18055e-015 -3.97569e-016 1.98785e-016 -3.18055e-015 -2.98177e-016 1.98785e-016 -3.18055e-015 -2.98177e-016 3.97569e-016 -0 4.96962e-016 0 -6.36111e-015 -9.93923e-017 3.97569e-016 -0 -8.94531e-016 5.96354e-016 -0 -3.97569e-016 3.97569e-016 -0 -9.93923e-017 3.97569e-016 -0 -8.94531e-016 5.96354e-016 -0 -3.97569e-016 3.97569e-016 -0 4.96962e-016 0 -6.36111e-015 -9.93923e-017 3.97569e-016 -0 -8.94531e-016 5.96354e-016 -0 -3.97569e-016 3.97569e-016 -0 -9.93923e-017 3.97569e-016 -0 -8.94531e-016 5.96354e-016 -0 -3.97569e-016 3.97569e-016 -0 -4.66111 -0.998717 0.12318 0.00986924 1.54847 0.176523 4.65186 -0.572283 -0.254274 4.66111 -0.998765 -0.123176 -0.00986867 1.54869 -0.176537 -4.65186 -0.572453 0.25427 
4.03578 51.8869 1.06994 8.76809 8.1839 132.705 -0.458371 15.5263 0.0943188 -1.00334 31.0512 0.343534 -1.00336 31.0512 0.343552 0.000378969 -14.0523 2.7569e-005 -5.76412e-007 -1.44516 -1.29031e-006 -4.39314 -16.6115 5.38893 -28.0019 47.0064 -60.1429 32.1333 -16.1958 2.15407 21.0956 8.61889 0.492357 1.58255e-006 -5.81047e-007 -4.55361e-006 -1.10348e-031 3.97569e-015 1.59028e-015 -1.58255e-006 5.81046e-007 4.55361e-006 6.36111e-015 7.95139e-016 -0 1.58255e-006 -5.81047e-007 -4.55361e-006 -1.32417e-031 2.38542e-015 3.18055e-015 -1.58255e-006 5.81046e-007 4.55361e-006 1.58255e-006 -5.81047e-007 -4.55361e-006 -1.32417e-031 2.38542e-015 3.18055e-015 -1.58255e-006 5.81046e-007 4.55361e-006 6.36111e-015 7.95139e-016 -0 1.58255e-006 -5.81047e-007 -4.55361e-006 -1.32417e-031 2.38542e-015 3.18055e-015 -1.58255e-006 5.81046e-007 4.55361e-006 1.58255e-006 -5.81047e-007 -4.55361e-006 -1.32417e-031 2.38542e-015 3.18055e-015 -1.58255e-006 5.81046e-007 4.55361e-006 3.86605 -15.9426 -6.20179 27.8099 46.1668 59.9723 -34.6734 -16.4088 -2.82644 -16.5135 7.90788 -2.15981 -4.37326e-015 0 -1.59028e-015 4.77083e-015 3.18055e-015 3.18055e-015 -3.57812e-015 3.18055e-015 -2.38542e-015 -4.37326e-015 0 -1.59028e-015 3.97569e-015 3.18055e-015 6.36111e-015 -5.56597e-015 0 -2.38542e-015 -5.96354e-015 3.18055e-015 -7.95139e-016 3.97569e-015 3.18055e-015 6.36111e-015 -5.56597e-015 0 -2.38542e-015 -5.96354e-015 3.18055e-015 -7.95139e-016 -4.37326e-015 0 -1.59028e-015 3.97569e-015 3.18055e-015 6.36111e-015 -5.56597e-015 0 -2.38542e-015 -5.96354e-015 3.18055e-015 -7.95139e-016 3.97569e-015 3.18055e-015 6.36111e-015 -5.56597e-015 0 -2.38542e-015 -5.96354e-015 3.18055e-015 -7.95139e-016 23.3415 -11.1123 -1.20371 19.1284 79.1281 -16.506 -10.1971 43.3195 -4.61992 -22.0456 -11.0059 0.192103 -22.8339 80.4844 20.1447 10.3476 41.4408 3.38452 
0.14274 32.4783 0.61043 -3.97613 16.308 -166.097 -0.670984 22.3204 0.0645882 -1.5778 44.638 0.506712 -1.5778 44.638 0.506708 -8.59904e-005 -20.4881 -2.74489e-005 -3.13923e-006 -2.28335 1.75014e-006 -5.23785 -23.8243 8.13008 -23.4497 33.9325 -91.998 44.205 -22.5365 -3.93653 30.5596 12.5367 0.997021 1.86033e-006 -1.20711e-007 1.93388e-006 -1.06406e-006 5.255e-007 2.82124e-006 1.98104e-006 1.73962e-006 -4.34595e-006 4.77083e-015 -3.18055e-015 3.18055e-015 1.86033e-006 -1.20711e-007 1.93388e-006 -1.06406e-006 5.255e-007 2.82124e-006 1.98104e-006 1.73962e-006 -4.34595e-006 1.86033e-006 -1.20711e-007 1.93388e-006 -1.06406e-006 5.255e-007 2.82124e-006 1.98104e-006 1.73962e-006 -4.34595e-006 4.77083e-015 -3.18055e-015 3.18055e-015 1.86033e-006 -1.20711e-007 1.93388e-006 -1.06406e-006 5.255e-007 2.82124e-006 1.98104e-006 1.73962e-006 -4.34595e-006 1.86033e-006 -1.20711e-007 1.93388e-006 -1.06406e-006 5.255e-007 2.82124e-006 1.98104e-006 1.73962e-006 -4.34595e-006 4.37787 -22.8331 -9.31741 23.2966 33.5487 91.2874 -46.8609 -22.8948 3.57317 -23.7212 11.5103 -3.18467 6.36111e-015 6.36111e-015 -3.18055e-015 -8.49892e-007 -1.40523e-006 4.17162e-007 3.18055e-015 0 6.36111e-015 6.36111e-015 -1.59028e-015 -0 -1.27222e-014 3.18055e-015 -3.18055e-015 -8.49892e-007 -1.40523e-006 4.17162e-007 -6.36111e-015 -6.36111e-015 -3.18055e-015 -1.27222e-014 3.18055e-015 -3.18055e-015 -8.49892e-007 -1.40523e-006 4.17162e-007 -6.36111e-015 -6.36111e-015 -3.18055e-015 6.36111e-015 -1.59028e-015 -0 -1.27222e-014 3.18055e-015 -3.18055e-015 -8.49892e-007 -1.40523e-006 4.17162e-007 -6.36111e-015 -6.36111e-015 -3.18055e-015 -1.27222e-014 3.18055e-015 -3.18055e-015 -8.49892e-007 -1.40523e-006 4.17162e-007 -6.36111e-015 -6.36111e-015 -3.18055e-015 36.1384 -17.5497 0.454445 165.026 63.1036 -158.066 -17.0899 62.6725 -6.13512 -34.4133 -17.4522 -2.31022 -165.799 60.8941 158.42 18.4927 59.9356 3.23923 
1.26828 36.7245 0.275925 -5.21482e-015 14.4023 180 -0.620332 20.3808 0.0648645 -1.41786 40.7592 0.43034 -1.41786 40.7592 0.43034 -6.56463e-006 -19.309 9.46489e-007 5.21083e-007 -2.51469 -8.0043e-008 -5.05498 -21.9092 7.34218 -22.958 38.0629 -87.4395 40.7582 -20.7078 -1.79705 28.8977 11.1259 0.544441 9.54166e-015 3.18055e-015 6.36111e-015 3.18055e-015 0 -0 -3.41167e-007 7.37382e-007 2.49669e-007 3.18055e-015 3.18055e-015 9.54166e-015 3.18055e-015 6.36111e-015 9.54166e-015 3.18055e-015 3.18055e-015 -0 -3.41167e-007 7.37382e-007 2.49669e-007 3.18055e-015 6.36111e-015 9.54166e-015 3.18055e-015 3.18055e-015 -0 -3.41167e-007 7.37382e-007 2.49669e-007 3.18055e-015 3.18055e-015 9.54166e-015 3.18055e-015 6.36111e-015 9.54166e-015 3.18055e-015 3.18055e-015 -0 -3.41167e-007 7.37382e-007 2.49669e-007 3.18055e-015 6.36111e-015 9.54166e-015 3.18055e-015 3.18055e-015 -0 -3.41167e-007 7.37382e-007 2.49669e-007 4.29622 -21.0157 -8.42121 22.893 37.6125 86.7955 -43.4275 -20.9883 1.33164 -22.57 10.2551 -2.51972 3.63012e-006 9.71466e-008 -3.49027e-009 9.52032e-007 2.82818e-006 8.63457e-006 3.63012e-006 9.71463e-008 -3.49027e-009 3.18055e-015 3.18055e-015 6.36111e-015 3.63012e-006 9.71466e-008 -3.49028e-009 9.52032e-007 2.82818e-006 8.63457e-006 3.63012e-006 9.71463e-008 -3.49027e-009 3.63012e-006 9.71466e-008 -3.49028e-009 9.52032e-007 2.82818e-006 8.63457e-006 3.63012e-006 9.71463e-008 -3.49027e-009 3.18055e-015 3.18055e-015 6.36111e-015 3.63012e-006 9.71466e-008 -3.49028e-009 9.52032e-007 2.82818e-006 8.63457e-006 3.63012e-006 9.71463e-008 -3.49027e-009 3.63012e-006 9.71466e-008 -3.49028e-009 9.52032e-007 2.82818e-006 8.63457e-006 3.63012e-006 9.71463e-008 -3.49027e-009 33.5282 -17.2927 -0.26745 162.922 70.8385 -156.781 -14.8608 58.4052 -6.86223 -31.8989 -17.2223 -1.36153 -164.07 68.7975 157.643 15.8318 55.8752 4.46728 
